<mxfile host="app.diagrams.net" agent="Mozilla/5.0 (Windows NT 10.0; Win64; x64) AppleWebKit/537.36 (KHTML, like Gecko) Chrome/131.0.0.0 Safari/537.36" version="25.0.1" pages="2">
  <diagram name="pedido produtp" id="iMk0u0PtlO4KbqGMpoo1">
    <mxGraphModel dx="1195" dy="643" grid="1" gridSize="10" guides="1" tooltips="1" connect="1" arrows="1" fold="1" page="1" pageScale="1" pageWidth="827" pageHeight="1169" math="0" shadow="0">
      <root>
        <mxCell id="0" />
        <mxCell id="1" parent="0" />
        <mxCell id="4-xo_bK5TDeONnPd-SVK-1" value="Banco" style="html=1;whiteSpace=wrap;" vertex="1" parent="1">
          <mxGeometry x="650" y="50" width="110" height="50" as="geometry" />
        </mxCell>
        <mxCell id="4-xo_bK5TDeONnPd-SVK-2" value="Cliente" style="shape=umlActor;verticalLabelPosition=bottom;verticalAlign=top;html=1;" vertex="1" parent="1">
          <mxGeometry x="50" y="40" width="30" height="60" as="geometry" />
        </mxCell>
        <mxCell id="4-xo_bK5TDeONnPd-SVK-3" value="" style="endArrow=none;dashed=1;html=1;rounded=0;entryX=0.5;entryY=0.5;entryDx=0;entryDy=0;entryPerimeter=0;" edge="1" parent="1" target="4-xo_bK5TDeONnPd-SVK-2">
          <mxGeometry width="50" height="50" relative="1" as="geometry">
            <mxPoint x="65" y="560" as="sourcePoint" />
            <mxPoint x="440" y="370" as="targetPoint" />
          </mxGeometry>
        </mxCell>
        <mxCell id="4-xo_bK5TDeONnPd-SVK-5" value="Sistema" style="html=1;whiteSpace=wrap;" vertex="1" parent="1">
          <mxGeometry x="220" y="50" width="110" height="50" as="geometry" />
        </mxCell>
        <mxCell id="4-xo_bK5TDeONnPd-SVK-8" value="" style="endArrow=none;dashed=1;html=1;rounded=0;" edge="1" parent="1" source="4-xo_bK5TDeONnPd-SVK-30" target="4-xo_bK5TDeONnPd-SVK-1">
          <mxGeometry width="50" height="50" relative="1" as="geometry">
            <mxPoint x="705" y="560" as="sourcePoint" />
            <mxPoint x="704.5" y="110" as="targetPoint" />
          </mxGeometry>
        </mxCell>
        <mxCell id="4-xo_bK5TDeONnPd-SVK-9" value="" style="endArrow=none;dashed=1;html=1;rounded=0;" edge="1" parent="1" source="4-xo_bK5TDeONnPd-SVK-28" target="4-xo_bK5TDeONnPd-SVK-5">
          <mxGeometry width="50" height="50" relative="1" as="geometry">
            <mxPoint x="276" y="560" as="sourcePoint" />
            <mxPoint x="274.5" y="120" as="targetPoint" />
          </mxGeometry>
        </mxCell>
        <mxCell id="4-xo_bK5TDeONnPd-SVK-11" value="" style="endArrow=classic;html=1;rounded=0;" edge="1" parent="1">
          <mxGeometry width="50" height="50" relative="1" as="geometry">
            <mxPoint x="70" y="190" as="sourcePoint" />
            <mxPoint x="270" y="190" as="targetPoint" />
          </mxGeometry>
        </mxCell>
        <mxCell id="4-xo_bK5TDeONnPd-SVK-12" value="Adicionar Produto()" style="text;html=1;align=center;verticalAlign=middle;whiteSpace=wrap;rounded=0;" vertex="1" parent="1">
          <mxGeometry x="120" y="160" width="110" height="30" as="geometry" />
        </mxCell>
        <mxCell id="4-xo_bK5TDeONnPd-SVK-14" value="" style="endArrow=classic;html=1;rounded=0;exitX=1;exitY=0.077;exitDx=0;exitDy=0;exitPerimeter=0;" edge="1" parent="1" source="4-xo_bK5TDeONnPd-SVK-28">
          <mxGeometry width="50" height="50" relative="1" as="geometry">
            <mxPoint x="350" y="220" as="sourcePoint" />
            <mxPoint x="700" y="220" as="targetPoint" />
          </mxGeometry>
        </mxCell>
        <mxCell id="4-xo_bK5TDeONnPd-SVK-24" value="verificar disponibilidade()" style="text;html=1;align=center;verticalAlign=middle;whiteSpace=wrap;rounded=0;" vertex="1" parent="1">
          <mxGeometry x="380" y="190" width="200" height="30" as="geometry" />
        </mxCell>
        <mxCell id="4-xo_bK5TDeONnPd-SVK-29" value="" style="endArrow=none;dashed=1;html=1;rounded=0;" edge="1" parent="1" target="4-xo_bK5TDeONnPd-SVK-28">
          <mxGeometry width="50" height="50" relative="1" as="geometry">
            <mxPoint x="276" y="560" as="sourcePoint" />
            <mxPoint x="275" y="100" as="targetPoint" />
          </mxGeometry>
        </mxCell>
        <mxCell id="4-xo_bK5TDeONnPd-SVK-28" value="" style="rounded=0;whiteSpace=wrap;html=1;" vertex="1" parent="1">
          <mxGeometry x="260" y="200" width="30" height="260" as="geometry" />
        </mxCell>
        <mxCell id="4-xo_bK5TDeONnPd-SVK-31" value="" style="endArrow=none;dashed=1;html=1;rounded=0;" edge="1" parent="1" target="4-xo_bK5TDeONnPd-SVK-30">
          <mxGeometry width="50" height="50" relative="1" as="geometry">
            <mxPoint x="705" y="560" as="sourcePoint" />
            <mxPoint x="469" y="100" as="targetPoint" />
          </mxGeometry>
        </mxCell>
        <mxCell id="4-xo_bK5TDeONnPd-SVK-30" value="" style="rounded=0;whiteSpace=wrap;html=1;" vertex="1" parent="1">
          <mxGeometry x="690" y="230" width="30" height="90" as="geometry" />
        </mxCell>
        <mxCell id="4-xo_bK5TDeONnPd-SVK-32" value="Carrinho" style="html=1;whiteSpace=wrap;" vertex="1" parent="1">
          <mxGeometry x="420" y="50" width="110" height="50" as="geometry" />
        </mxCell>
        <mxCell id="4-xo_bK5TDeONnPd-SVK-33" value="" style="endArrow=none;dashed=1;html=1;rounded=0;" edge="1" parent="1" target="4-xo_bK5TDeONnPd-SVK-32" source="4-xo_bK5TDeONnPd-SVK-36">
          <mxGeometry width="50" height="50" relative="1" as="geometry">
            <mxPoint x="475" y="560" as="sourcePoint" />
            <mxPoint x="474.5" y="120" as="targetPoint" />
          </mxGeometry>
        </mxCell>
        <mxCell id="4-xo_bK5TDeONnPd-SVK-34" value="" style="endArrow=classic;html=1;rounded=0;exitX=0;exitY=0.75;exitDx=0;exitDy=0;entryX=1.056;entryY=0.373;entryDx=0;entryDy=0;entryPerimeter=0;" edge="1" parent="1" source="4-xo_bK5TDeONnPd-SVK-30" target="4-xo_bK5TDeONnPd-SVK-28">
          <mxGeometry width="50" height="50" relative="1" as="geometry">
            <mxPoint x="250" y="390" as="sourcePoint" />
            <mxPoint x="330" y="290" as="targetPoint" />
          </mxGeometry>
        </mxCell>
        <mxCell id="4-xo_bK5TDeONnPd-SVK-35" value="retorna status()" style="text;html=1;align=center;verticalAlign=middle;whiteSpace=wrap;rounded=0;" vertex="1" parent="1">
          <mxGeometry x="380" y="270" width="200" height="30" as="geometry" />
        </mxCell>
        <mxCell id="4-xo_bK5TDeONnPd-SVK-37" value="" style="endArrow=none;dashed=1;html=1;rounded=0;" edge="1" parent="1" target="4-xo_bK5TDeONnPd-SVK-36">
          <mxGeometry width="50" height="50" relative="1" as="geometry">
            <mxPoint x="475" y="560" as="sourcePoint" />
            <mxPoint x="475" y="100" as="targetPoint" />
          </mxGeometry>
        </mxCell>
        <mxCell id="4-xo_bK5TDeONnPd-SVK-36" value="" style="rounded=0;whiteSpace=wrap;html=1;" vertex="1" parent="1">
          <mxGeometry x="460" y="320" width="30" height="90" as="geometry" />
        </mxCell>
        <mxCell id="4-xo_bK5TDeONnPd-SVK-38" value="" style="endArrow=classic;html=1;rounded=0;entryX=0;entryY=0.25;entryDx=0;entryDy=0;exitX=1.083;exitY=0.546;exitDx=0;exitDy=0;exitPerimeter=0;" edge="1" parent="1" source="4-xo_bK5TDeONnPd-SVK-28" target="4-xo_bK5TDeONnPd-SVK-36">
          <mxGeometry width="50" height="50" relative="1" as="geometry">
            <mxPoint x="260" y="380" as="sourcePoint" />
            <mxPoint x="310" y="330" as="targetPoint" />
          </mxGeometry>
        </mxCell>
        <mxCell id="4-xo_bK5TDeONnPd-SVK-39" value="addproduto()" style="text;html=1;align=center;verticalAlign=middle;whiteSpace=wrap;rounded=0;" vertex="1" parent="1">
          <mxGeometry x="340" y="320" width="60" height="30" as="geometry" />
        </mxCell>
        <mxCell id="4-xo_bK5TDeONnPd-SVK-40" value="" style="endArrow=classic;html=1;rounded=0;exitX=-0.083;exitY=0.856;exitDx=0;exitDy=0;exitPerimeter=0;entryX=1;entryY=0.75;entryDx=0;entryDy=0;dashed=1;" edge="1" parent="1" source="4-xo_bK5TDeONnPd-SVK-36" target="4-xo_bK5TDeONnPd-SVK-28">
          <mxGeometry width="50" height="50" relative="1" as="geometry">
            <mxPoint x="260" y="380" as="sourcePoint" />
            <mxPoint x="310" y="330" as="targetPoint" />
          </mxGeometry>
        </mxCell>
        <mxCell id="4-xo_bK5TDeONnPd-SVK-41" value="" style="endArrow=classic;html=1;rounded=0;exitX=-0.083;exitY=0.873;exitDx=0;exitDy=0;exitPerimeter=0;dashed=1;" edge="1" parent="1" source="4-xo_bK5TDeONnPd-SVK-28">
          <mxGeometry width="50" height="50" relative="1" as="geometry">
            <mxPoint x="260" y="380" as="sourcePoint" />
            <mxPoint x="70" y="427" as="targetPoint" />
          </mxGeometry>
        </mxCell>
      </root>
    </mxGraphModel>
  </diagram>
  <diagram id="p9UqK3TGUDohUmmF15eO" name="PÃ¡gina-2">
    <mxGraphModel dx="1434" dy="772" grid="1" gridSize="10" guides="1" tooltips="1" connect="1" arrows="1" fold="1" page="1" pageScale="1" pageWidth="827" pageHeight="1169" math="0" shadow="0">
      <root>
        <mxCell id="0" />
        <mxCell id="1" parent="0" />
        <mxCell id="f5qaVwx7tcy3EtKMgndy-1" value="Banco" style="html=1;whiteSpace=wrap;" vertex="1" parent="1">
          <mxGeometry x="650" y="50" width="110" height="50" as="geometry" />
        </mxCell>
        <mxCell id="f5qaVwx7tcy3EtKMgndy-2" value="" style="endArrow=none;dashed=1;html=1;rounded=0;entryX=0.5;entryY=0.5;entryDx=0;entryDy=0;entryPerimeter=0;" edge="1" parent="1">
          <mxGeometry width="50" height="50" relative="1" as="geometry">
            <mxPoint x="65" y="560" as="sourcePoint" />
            <mxPoint x="65" y="70" as="targetPoint" />
          </mxGeometry>
        </mxCell>
        <mxCell id="f5qaVwx7tcy3EtKMgndy-3" value="Login" style="html=1;whiteSpace=wrap;" vertex="1" parent="1">
          <mxGeometry x="220" y="50" width="110" height="50" as="geometry" />
        </mxCell>
        <mxCell id="f5qaVwx7tcy3EtKMgndy-4" value="" style="endArrow=none;dashed=1;html=1;rounded=0;" edge="1" parent="1" target="f5qaVwx7tcy3EtKMgndy-1">
          <mxGeometry width="50" height="50" relative="1" as="geometry">
            <mxPoint x="705" y="560" as="sourcePoint" />
            <mxPoint x="704.5" y="110" as="targetPoint" />
          </mxGeometry>
        </mxCell>
        <mxCell id="f5qaVwx7tcy3EtKMgndy-5" value="" style="endArrow=none;dashed=1;html=1;rounded=0;" edge="1" parent="1" target="f5qaVwx7tcy3EtKMgndy-3">
          <mxGeometry width="50" height="50" relative="1" as="geometry">
            <mxPoint x="270" y="560" as="sourcePoint" />
            <mxPoint x="274.5" y="120" as="targetPoint" />
          </mxGeometry>
        </mxCell>
        <mxCell id="f5qaVwx7tcy3EtKMgndy-14" value="Servidor AutenticaÃ§Ã£o" style="html=1;whiteSpace=wrap;" vertex="1" parent="1">
          <mxGeometry x="420" y="50" width="110" height="50" as="geometry" />
        </mxCell>
        <mxCell id="f5qaVwx7tcy3EtKMgndy-15" value="" style="endArrow=none;dashed=1;html=1;rounded=0;" edge="1" parent="1" target="f5qaVwx7tcy3EtKMgndy-14">
          <mxGeometry width="50" height="50" relative="1" as="geometry">
            <mxPoint x="475" y="550" as="sourcePoint" />
            <mxPoint x="474.5" y="120" as="targetPoint" />
          </mxGeometry>
        </mxCell>
        <mxCell id="f5qaVwx7tcy3EtKMgndy-24" value="UsuÃ¡rio" style="shape=umlActor;verticalLabelPosition=bottom;verticalAlign=top;html=1;outlineConnect=0;" vertex="1" parent="1">
          <mxGeometry x="50" y="30" width="30" height="60" as="geometry" />
        </mxCell>
      </root>
    </mxGraphModel>
  </diagram>
</mxfile>
